<svg width="1280" height="720" xmlns="http://www.w3.org/2000/svg" xmlns:xlink="http://www.w3.org/1999/xlink" overflow="hidden"><defs><clipPath id="clip0"><path d="M0 0 1280 0 1280 720 0 720Z" fill-rule="evenodd" clip-rule="evenodd"/></clipPath></defs><g clip-path="url(#clip0)"><rect x="0" y="0" width="1280" height="720" fill="#203864"/><rect x="186" y="210" width="229" height="35" stroke="#FFFFFF" stroke-width="4" stroke-miterlimit="8" fill="#7030A0"/><path d="M215.813 209.905 409.969 404.061 385.187 428.844 191.031 234.687Z" stroke="#FFFFFF" stroke-width="4" stroke-miterlimit="8" fill="#7030A0" fill-rule="evenodd"/><rect x="186" y="402" width="229" height="35" stroke="#FFFFFF" stroke-width="4" stroke-miterlimit="8" fill="#7030A0"/><rect x="410" y="210" width="35" height="229" stroke="#FFFFFF" stroke-width="4" stroke-miterlimit="8" fill="#7030A0"/><rect x="606" y="210" width="35" height="229" stroke="#FFFFFF" stroke-width="4" stroke-miterlimit="8" fill="#7030A0"/><rect x="410" y="210" width="229" height="35" stroke="#FFFFFF" stroke-width="4" stroke-miterlimit="8" fill="#7030A0"/><rect x="410" y="325" width="229" height="35" stroke="#FFFFFF" stroke-width="4" stroke-miterlimit="8" fill="#7030A0"/><path d="M669.164 207.548 790.894 418.391 760.542 435.915 638.812 225.072Z" stroke="#FFFFFF" stroke-width="4" stroke-miterlimit="8" fill="#7030A0" fill-rule="evenodd"/><path d="M714.473 419.234 836.204 208.391 866.556 225.914 744.825 436.758Z" stroke="#FFFFFF" stroke-width="4" stroke-miterlimit="8" fill="#7030A0" fill-rule="evenodd"/><rect x="867" y="208" width="35" height="229" stroke="#FFFFFF" stroke-width="4" stroke-miterlimit="8" fill="#7030A0"/><rect x="736" y="352" width="35" height="85" stroke="#FFFFFF" stroke-width="4" stroke-miterlimit="8" fill="#7030A0"/><rect x="866" y="208" width="228" height="35" stroke="#FFFFFF" stroke-width="4" stroke-miterlimit="8" fill="#7030A0"/><rect x="868" y="307" width="227" height="35" stroke="#FFFFFF" stroke-width="4" stroke-miterlimit="8" fill="#7030A0"/><rect x="867" y="402" width="228" height="36" stroke="#FFFFFF" stroke-width="4" stroke-miterlimit="8" fill="#7030A0"/></g></svg>